<svg width="25" height="25" viewBox="0 0 25 25" fill="none" xmlns="http://www.w3.org/2000/svg">
<path fill-rule="evenodd" clip-rule="evenodd" d="M9.53873 21.6369V18.4424C9.53871 17.6299 10.2011 16.9697 11.0218 16.9642H14.0282C14.8528 16.9642 15.5213 17.626 15.5213 18.4424V18.4424V21.6468C15.5211 22.3367 16.0773 22.9005 16.774 22.9167H18.7782C20.7761 22.9167 22.3958 21.3132 22.3958 19.3353V19.3353V10.2478C22.3851 9.46965 22.0161 8.73895 21.3937 8.26362L14.5393 2.79723C13.3384 1.84542 11.6314 1.84542 10.4306 2.79723L3.60624 8.27354C2.98148 8.74694 2.61182 9.47886 2.60413 10.2577V19.3353C2.60413 21.3132 4.22379 22.9167 6.22174 22.9167H8.22596C8.93991 22.9167 9.51868 22.3437 9.51868 21.6369V21.6369" fill="black"/>
<path d="M9.53873 21.6369V18.4424C9.53871 17.6299 10.2011 16.9697 11.0218 16.9642H14.0282C14.8528 16.9642 15.5213 17.626 15.5213 18.4424V18.4424V21.6468C15.5211 22.3367 16.0773 22.9005 16.774 22.9167H18.7782C20.7761 22.9167 22.3958 21.3132 22.3958 19.3353V19.3353V10.2478C22.3851 9.46965 22.0161 8.73895 21.3937 8.26362L14.5393 2.79723C13.3384 1.84542 11.6314 1.84542 10.4306 2.79723L3.60624 8.27354C2.98148 8.74694 2.61182 9.47886 2.60413 10.2577V19.3353C2.60413 21.3132 4.22379 22.9167 6.22174 22.9167H8.22596C8.93991 22.9167 9.51868 22.3437 9.51868 21.6369V21.6369" stroke="black" stroke-width="1.5" stroke-linecap="round" stroke-linejoin="round"/>
</svg>
