<svg width="26" height="25" viewBox="0 0 26 25" fill="none" xmlns="http://www.w3.org/2000/svg">
<path d="M10.0387 21.6369V18.4424C10.0387 17.6299 10.7011 16.9697 11.5218 16.9642H14.5282C15.3528 16.9642 16.0213 17.626 16.0213 18.4424V18.4424V21.6468C16.0211 22.3367 16.5773 22.9005 17.274 22.9167H19.2782C21.2761 22.9167 22.8958 21.3132 22.8958 19.3353V19.3353V10.2478C22.8851 9.46965 22.5161 8.73895 21.8937 8.26362L15.0393 2.79723C13.8384 1.84542 12.1314 1.84542 10.9306 2.79723L4.10624 8.27354C3.48148 8.74694 3.11182 9.47886 3.10413 10.2577V19.3353C3.10413 21.3132 4.72379 22.9167 6.72174 22.9167H8.72596C9.43991 22.9167 10.0187 22.3437 10.0187 21.6369V21.6369" stroke="black" stroke-width="1.5" stroke-linecap="round" stroke-linejoin="round"/>
</svg>
