<svg width="25" height="25" viewBox="0 0 25 25" fill="none" xmlns="http://www.w3.org/2000/svg">
<path fill-rule="evenodd" clip-rule="evenodd" d="M3.64673 14.3616V14.1335C3.6802 13.4586 3.8965 12.8047 4.27333 12.2392C4.90056 11.5598 5.32994 10.7274 5.51641 9.82912C5.51641 9.13488 5.51641 8.43071 5.57705 7.73647C5.89034 4.39416 9.19512 2.08331 12.4595 2.08331H12.5403C15.8047 2.08331 19.1095 4.39416 19.4329 7.73647C19.4935 8.43071 19.4329 9.13488 19.4834 9.82912C19.6724 10.7295 20.1013 11.5645 20.7265 12.2491C21.1061 12.8096 21.3228 13.4611 21.3531 14.1335V14.3516C21.3756 15.2584 21.0633 16.1425 20.4738 16.841C19.6948 17.6578 18.6377 18.1659 17.5025 18.2692C14.174 18.6262 10.8157 18.6262 7.48715 18.2692C6.35332 18.1614 5.29771 17.654 4.51588 16.841C3.93546 16.142 3.62737 15.2631 3.64673 14.3616Z" stroke="#200E32" stroke-width="1.5" stroke-linecap="round" stroke-linejoin="round"/>
<path d="M9.95312 21.7206C10.4732 22.3734 11.2369 22.7958 12.0753 22.8945C12.9137 22.9931 13.7575 22.7598 14.4201 22.2462C14.6239 22.0943 14.8073 21.9177 14.9659 21.7206" stroke="#200E32" stroke-width="1.5" stroke-linecap="round" stroke-linejoin="round"/>
</svg>
