<svg width="26" height="25" viewBox="0 0 26 25" fill="none" xmlns="http://www.w3.org/2000/svg">
<ellipse cx="12.5748" cy="7.58124" rx="4.82629" ry="4.97712" fill="black" stroke="#200E32" stroke-width="1.5" stroke-linecap="round" stroke-linejoin="round"/>
<path fill-rule="evenodd" clip-rule="evenodd" d="M4.91921 19.4805C4.91791 19.1307 4.99379 18.785 5.1411 18.4699C5.60339 17.5164 6.90705 17.0111 7.9888 16.7822C8.76896 16.6105 9.5599 16.4958 10.3557 16.439C11.8291 16.3055 13.311 16.3055 14.7844 16.439C15.5802 16.4965 16.3711 16.6112 17.1514 16.7822C18.2331 17.0111 19.5368 17.4687 19.9991 18.4699C20.2953 19.1124 20.2953 19.8583 19.9991 20.5008C19.5368 21.5019 18.2331 21.9596 17.1514 22.1789C16.3721 22.3577 15.5809 22.4756 14.7844 22.5316C13.5852 22.6365 12.3804 22.6556 11.1786 22.5889C10.9012 22.5889 10.6331 22.5889 10.3557 22.5316C9.56225 22.4763 8.77406 22.3583 7.99805 22.1789C6.90705 21.9596 5.61264 21.5019 5.1411 20.5008C4.99454 20.1819 4.91874 19.8334 4.91921 19.4805Z" fill="black" stroke="#200E32" stroke-width="1.5" stroke-linecap="round" stroke-linejoin="round"/>
</svg>
