<svg width="26" height="25" viewBox="0 0 26 25" fill="none" xmlns="http://www.w3.org/2000/svg">
<path fill-rule="evenodd" clip-rule="evenodd" d="M16.0464 3.25012H8.4758C5.33888 3.25012 3.3938 5.47171 3.3938 8.60863V17.0278C3.3938 20.1647 5.30074 22.3767 8.4758 22.3767H17.4384C20.5753 22.3767 22.5204 20.1647 22.5204 17.0278V9.69558" fill="black"/>
<path d="M16.0464 3.25012H8.4758C5.33888 3.25012 3.3938 5.47171 3.3938 8.60863V17.0278C3.3938 20.1647 5.30074 22.3767 8.4758 22.3767H17.4384C20.5753 22.3767 22.5204 20.1647 22.5204 17.0278V9.69558" stroke="#200E32" stroke-width="1.5" stroke-linecap="round" stroke-linejoin="round"/>
<path d="M8.04663 15.3976L11.1645 11.3453L14.7209 14.139L17.772 10.2012" stroke="white" stroke-width="1.5" stroke-linecap="round" stroke-linejoin="round"/>
<ellipse cx="21.3285" cy="4.37534" rx="2.00229" ry="2.00229" stroke="#040404" stroke-width="1.5" stroke-linecap="round" stroke-linejoin="round"/>
</svg>
