<svg width="22" height="24" viewBox="0 0 22 24" fill="none" xmlns="http://www.w3.org/2000/svg">
<path fill-rule="evenodd" clip-rule="evenodd" d="M20.5415 6.95958L19.8476 5.75542C19.2606 4.73652 17.9596 4.38502 16.9393 4.96965V4.96965C16.4536 5.25576 15.8741 5.33693 15.3285 5.19527C14.7829 5.05361 14.316 4.70075 14.0309 4.2145C13.8475 3.90543 13.7489 3.55341 13.7452 3.19402V3.19402C13.7617 2.61784 13.5443 2.05949 13.1426 1.64617C12.7408 1.23285 12.1888 0.999763 11.6124 1H10.2143C9.64961 0.999994 9.10817 1.22502 8.70981 1.6253C8.31145 2.02557 8.08902 2.56808 8.09174 3.1328V3.1328C8.075 4.29873 7.125 5.2351 5.95894 5.23498C5.59956 5.23124 5.24753 5.13268 4.93847 4.94924V4.94924C3.91817 4.36461 2.61717 4.71611 2.03011 5.73501L1.28516 6.95958C0.698813 7.97721 1.04553 9.27739 2.06073 9.86794V9.86794C2.72062 10.2489 3.12713 10.953 3.12713 11.715C3.12713 12.477 2.72062 13.1811 2.06073 13.5621V13.5621C1.04682 14.1486 0.699724 15.4457 1.28516 16.4602V16.4602L1.98929 17.6746C2.26435 18.1709 2.72586 18.5372 3.27169 18.6923C3.81752 18.8474 4.40267 18.7786 4.89765 18.5012V18.5012C5.38424 18.2172 5.9641 18.1394 6.50832 18.2851C7.05255 18.4307 7.51605 18.7877 7.7958 19.2767C7.97923 19.5858 8.0778 19.9378 8.08153 20.2972V20.2972C8.08153 21.4751 9.03642 22.43 10.2143 22.43H11.6124C12.7863 22.43 13.7396 21.4813 13.7452 20.3074V20.3074C13.7424 19.7409 13.9663 19.1969 14.3668 18.7963C14.7674 18.3957 15.3115 18.1719 15.878 18.1746C16.2365 18.1842 16.5871 18.2824 16.8984 18.4603V18.4603C17.9161 19.0467 19.2163 18.7 19.8068 17.6848V17.6848L20.5415 16.4602C20.8259 15.9721 20.904 15.3907 20.7584 14.8448C20.6129 14.2989 20.2557 13.8336 19.766 13.5519V13.5519C19.2763 13.2701 18.9191 12.8048 18.7735 12.2589C18.628 11.713 18.706 11.1317 18.9904 10.6435C19.1754 10.3206 19.4431 10.0529 19.766 9.86794V9.86794C20.7751 9.27771 21.121 7.98513 20.5415 6.96979V6.96979V6.95958Z" stroke="#200E32" stroke-width="1.5" stroke-linecap="round" stroke-linejoin="round"/>
<circle cx="10.9185" cy="11.715" r="2.93897" stroke="#200E32" stroke-width="1.5" stroke-linecap="round" stroke-linejoin="round"/>
</svg>
